# xmcd
#
# Track frame offsets: 
#        150
#        11505
#        28428
#        36583
#        54625
#        64275
#        78470
#        104010
#        114643
#        126430
#        138283
#        149665
#        162983
#        186953
#        211940
#        222175
#        236535
#        246268
#        268568
#
# Disc length: 3831 seconds
#
# Revision: 0
# Processed by: cddbd v1.4PL0 Copyright (c) Steve Scherf et al.
# Submitted via: ExactAudioCopy v0.90b4
#
DISCID=2e0ef513
DTITLE=The James Cotton Band - 'Fore Day Blues
DYEAR=1994
DGENRE=Rock
TTITLE0=Good Time Charlie
TTITLE1=There Is Something On Your Mind
TTITLE2=Polly Put The Kettle On
TTITLE3=V-8 Ford Blues
TTITLE4=Diggin My Potatoes
TTITLE5=So Glad I'm Living
TTITLE6=Jelly, Jelly
TTITLE7=Turn On Your Love Light
TTITLE8=South Side Boogie
TTITLE9=Off The Wall
TTITLE10=Don't Start Me Talking
TTITLE11=Knock On Wood
TTITLE12='Fore Days Blues
TTITLE13=Sweet Sixteen
TTITLE14=I Need You So Bad
TTITLE15=Feelin' Good
TTITLE16=It Ain't Right
TTITLE17=Dealing With The Devil
TTITLE18=The Creeper
EXTD=
EXTT0=
EXTT1=
EXTT2=
EXTT3=
EXTT4=
EXTT5=
EXTT6=
EXTT7=
EXTT8=
EXTT9=
EXTT10=
EXTT11=
EXTT12=
EXTT13=
EXTT14=
EXTT15=
EXTT16=
EXTT17=
EXTT18=
PLAYORDER=
